<svg width="1000" height="250" viewBox="0 0 1000 250" fill="none" xmlns="http://www.w3.org/2000/svg">
<path d="M285.946 156.261C285.946 154.343 285.39 152.612 284.276 151.065C283.163 149.519 281.091 148.097 278.061 146.798C275.092 145.437 270.793 144.2 265.165 143.087C260.093 141.974 255.362 140.582 250.971 138.912C246.641 137.18 242.868 135.108 239.652 132.696C236.498 130.284 234.024 127.439 232.23 124.161C230.437 120.821 229.54 117.018 229.54 112.75C229.54 108.544 230.437 104.586 232.23 100.875C234.086 97.1641 236.715 93.8861 240.116 91.041C243.58 88.1341 247.785 85.8766 252.733 84.2686C257.743 82.5986 263.371 81.7637 269.618 81.7637C278.339 81.7637 285.823 83.1553 292.069 85.9385C298.378 88.7217 303.202 92.5563 306.542 97.4424C309.944 102.267 311.645 107.771 311.645 113.956H284.926C284.926 111.358 284.369 109.039 283.256 106.998C282.204 104.895 280.535 103.256 278.246 102.081C276.02 100.844 273.113 100.226 269.525 100.226C266.557 100.226 263.99 100.751 261.825 101.803C259.66 102.792 257.991 104.153 256.815 105.885C255.702 107.555 255.146 109.41 255.146 111.451C255.146 112.997 255.455 114.389 256.073 115.626C256.754 116.801 257.836 117.883 259.32 118.873C260.805 119.863 262.722 120.79 265.072 121.656C267.484 122.46 270.453 123.202 273.979 123.883C281.215 125.367 287.678 127.315 293.368 129.728C299.058 132.078 303.573 135.294 306.913 139.376C310.253 143.396 311.923 148.684 311.923 155.24C311.923 159.693 310.933 163.775 308.954 167.486C306.975 171.197 304.13 174.444 300.419 177.228C296.708 179.949 292.255 182.083 287.06 183.629C281.926 185.113 276.143 185.855 269.711 185.855C260.372 185.855 252.455 184.186 245.961 180.846C239.529 177.506 234.643 173.269 231.303 168.136C228.025 162.94 226.386 157.621 226.386 152.179H251.713C251.837 155.828 252.764 158.766 254.496 160.992C256.29 163.219 258.547 164.827 261.269 165.816C264.052 166.806 267.051 167.301 270.268 167.301C273.731 167.301 276.607 166.837 278.896 165.909C281.184 164.92 282.916 163.621 284.091 162.013C285.328 160.343 285.946 158.425 285.946 156.261ZM325.004 134.83V132.882C325.004 125.522 326.055 118.749 328.158 112.564C330.261 106.318 333.323 100.906 337.343 96.3291C341.363 91.7523 346.311 88.196 352.187 85.6602C358.062 83.0625 364.804 81.7637 372.411 81.7637C380.019 81.7637 386.791 83.0625 392.729 85.6602C398.666 88.196 403.645 91.7523 407.665 96.3291C411.747 100.906 414.84 106.318 416.942 112.564C419.045 118.749 420.097 125.522 420.097 132.882V134.83C420.097 142.128 419.045 148.901 416.942 155.147C414.84 161.332 411.747 166.744 407.665 171.383C403.645 175.96 398.697 179.516 392.821 182.052C386.946 184.588 380.204 185.855 372.597 185.855C364.989 185.855 358.217 184.588 352.279 182.052C346.404 179.516 341.425 175.96 337.343 171.383C333.323 166.744 330.261 161.332 328.158 155.147C326.055 148.901 325.004 142.128 325.004 134.83ZM351.723 132.882V134.83C351.723 139.036 352.094 142.963 352.836 146.612C353.578 150.261 354.753 153.478 356.361 156.261C358.031 158.982 360.196 161.116 362.855 162.662C365.515 164.208 368.762 164.981 372.597 164.981C376.308 164.981 379.493 164.208 382.152 162.662C384.812 161.116 386.946 158.982 388.554 156.261C390.162 153.478 391.337 150.261 392.079 146.612C392.883 142.963 393.285 139.036 393.285 134.83V132.882C393.285 128.8 392.883 124.965 392.079 121.378C391.337 117.729 390.131 114.513 388.461 111.729C386.853 108.884 384.719 106.658 382.06 105.05C379.4 103.442 376.184 102.638 372.411 102.638C368.638 102.638 365.422 103.442 362.763 105.05C360.165 106.658 358.031 108.884 356.361 111.729C354.753 114.513 353.578 117.729 352.836 121.378C352.094 124.965 351.723 128.8 351.723 132.882ZM464.721 41.5V184H437.909V41.5H464.721ZM520.941 164.518L543.207 83.6191H571.132L537.27 184H520.385L520.941 164.518ZM505.634 83.6191L527.992 164.61L528.456 184H511.479L477.616 83.6191H505.634ZM635.795 161.363V116.646C635.795 113.43 635.269 110.678 634.218 108.39C633.166 106.039 631.527 104.215 629.301 102.916C627.136 101.617 624.322 100.968 620.858 100.968C617.89 100.968 615.323 101.493 613.158 102.545C610.993 103.535 609.324 104.988 608.148 106.905C606.973 108.761 606.386 110.956 606.386 113.492H579.667C579.667 109.225 580.657 105.174 582.636 101.339C584.615 97.5042 587.491 94.1335 591.264 91.2266C595.036 88.2578 599.521 85.9385 604.716 84.2686C609.973 82.5986 615.849 81.7637 622.343 81.7637C630.136 81.7637 637.063 83.0625 643.124 85.6602C649.185 88.2578 653.948 92.1543 657.411 97.3496C660.937 102.545 662.699 109.039 662.699 116.832V159.786C662.699 165.291 663.039 169.806 663.72 173.331C664.4 176.795 665.39 179.825 666.688 182.423V184H639.691C638.393 181.279 637.403 177.877 636.723 173.795C636.104 169.651 635.795 165.507 635.795 161.363ZM639.32 122.862L639.506 137.984H624.569C621.044 137.984 617.982 138.386 615.385 139.19C612.787 139.994 610.653 141.139 608.983 142.623C607.313 144.046 606.076 145.715 605.272 147.633C604.53 149.55 604.159 151.653 604.159 153.941C604.159 156.23 604.685 158.302 605.736 160.157C606.788 161.951 608.303 163.373 610.282 164.425C612.261 165.414 614.581 165.909 617.24 165.909C621.26 165.909 624.755 165.105 627.724 163.497C630.692 161.889 632.981 159.91 634.589 157.56C636.259 155.209 637.125 152.983 637.187 150.88L644.237 162.198C643.248 164.734 641.887 167.363 640.155 170.084C638.485 172.805 636.352 175.372 633.754 177.784C631.156 180.134 628.033 182.083 624.384 183.629C620.735 185.113 616.405 185.855 611.396 185.855C605.025 185.855 599.242 184.588 594.047 182.052C588.913 179.454 584.831 175.898 581.801 171.383C578.832 166.806 577.348 161.611 577.348 155.797C577.348 150.54 578.337 145.87 580.316 141.788C582.296 137.706 585.202 134.273 589.037 131.49C592.934 128.645 597.789 126.511 603.603 125.089C609.416 123.604 616.158 122.862 623.827 122.862H639.32ZM710.014 102.916V222.594H683.295V83.6191H708.065L710.014 102.916ZM773.563 132.696V134.645C773.563 141.943 772.698 148.715 770.966 154.962C769.296 161.209 766.822 166.651 763.544 171.29C760.266 175.867 756.184 179.454 751.298 182.052C746.474 184.588 740.907 185.855 734.599 185.855C728.476 185.855 723.157 184.618 718.642 182.145C714.127 179.671 710.323 176.207 707.23 171.754C704.2 167.239 701.757 162.013 699.901 156.075C698.046 150.138 696.623 143.767 695.634 136.964V131.861C696.623 124.563 698.046 117.883 699.901 111.822C701.757 105.699 704.2 100.411 707.23 95.958C710.323 91.443 714.096 87.9486 718.549 85.4746C723.064 83.0007 728.352 81.7637 734.413 81.7637C740.784 81.7637 746.381 82.9697 751.205 85.3818C756.091 87.7939 760.173 91.2575 763.451 95.7725C766.791 100.287 769.296 105.668 770.966 111.915C772.698 118.162 773.563 125.089 773.563 132.696ZM746.752 134.645V132.696C746.752 128.429 746.381 124.501 745.639 120.914C744.958 117.265 743.845 114.08 742.299 111.358C740.814 108.637 738.835 106.534 736.361 105.05C733.949 103.504 731.011 102.73 727.548 102.73C723.899 102.73 720.775 103.318 718.178 104.493C715.642 105.668 713.57 107.369 711.962 109.596C710.354 111.822 709.148 114.482 708.344 117.574C707.54 120.667 707.045 124.161 706.859 128.058V140.953C707.169 145.53 708.035 149.643 709.457 153.292C710.88 156.879 713.075 159.724 716.044 161.827C719.013 163.93 722.909 164.981 727.733 164.981C731.259 164.981 734.228 164.208 736.64 162.662C739.052 161.054 741 158.858 742.484 156.075C744.031 153.292 745.113 150.076 745.731 146.427C746.412 142.778 746.752 138.85 746.752 134.645ZM844.35 161.363V116.646C844.35 113.43 843.824 110.678 842.772 108.39C841.721 106.039 840.082 104.215 837.855 102.916C835.691 101.617 832.877 100.968 829.413 100.968C826.444 100.968 823.878 101.493 821.713 102.545C819.548 103.535 817.878 104.988 816.703 106.905C815.528 108.761 814.94 110.956 814.94 113.492H788.222C788.222 109.225 789.211 105.174 791.19 101.339C793.17 97.5042 796.046 94.1335 799.818 91.2266C803.591 88.2578 808.075 85.9385 813.271 84.2686C818.528 82.5986 824.403 81.7637 830.897 81.7637C838.69 81.7637 845.618 83.0625 851.679 85.6602C857.74 88.2578 862.502 92.1543 865.966 97.3496C869.491 102.545 871.254 109.039 871.254 116.832V159.786C871.254 165.291 871.594 169.806 872.274 173.331C872.955 176.795 873.944 179.825 875.243 182.423V184H848.246C846.947 181.279 845.958 177.877 845.277 173.795C844.659 169.651 844.35 165.507 844.35 161.363ZM847.875 122.862L848.061 137.984H833.124C829.599 137.984 826.537 138.386 823.939 139.19C821.342 139.994 819.208 141.139 817.538 142.623C815.868 144.046 814.631 145.715 813.827 147.633C813.085 149.55 812.714 151.653 812.714 153.941C812.714 156.23 813.24 158.302 814.291 160.157C815.342 161.951 816.858 163.373 818.837 164.425C820.816 165.414 823.135 165.909 825.795 165.909C829.815 165.909 833.31 165.105 836.278 163.497C839.247 161.889 841.535 159.91 843.144 157.56C844.813 155.209 845.679 152.983 845.741 150.88L852.792 162.198C851.802 164.734 850.442 167.363 848.71 170.084C847.04 172.805 844.906 175.372 842.309 177.784C839.711 180.134 836.588 182.083 832.938 183.629C829.289 185.113 824.96 185.855 819.95 185.855C813.58 185.855 807.797 184.588 802.602 182.052C797.468 179.454 793.386 175.898 790.355 171.383C787.387 166.806 785.902 161.611 785.902 155.797C785.902 150.54 786.892 145.87 788.871 141.788C790.85 137.706 793.757 134.273 797.592 131.49C801.488 128.645 806.343 126.511 812.157 125.089C817.971 123.604 824.713 122.862 832.382 122.862H847.875ZM920.146 172.682L946.771 83.6191H975.438L935.082 199.122C934.216 201.658 933.041 204.379 931.557 207.286C930.134 210.193 928.186 212.945 925.712 215.543C923.3 218.202 920.238 220.367 916.527 222.037C912.878 223.707 908.394 224.542 903.075 224.542C900.539 224.542 898.467 224.387 896.859 224.078C895.251 223.769 893.334 223.336 891.107 222.779V203.204C891.788 203.204 892.499 203.204 893.241 203.204C893.983 203.266 894.695 203.297 895.375 203.297C898.9 203.297 901.776 202.895 904.003 202.091C906.229 201.287 908.023 200.05 909.384 198.38C910.744 196.772 911.827 194.669 912.631 192.071L920.146 172.682ZM909.013 83.6191L930.814 156.354L934.618 184.649L916.435 186.598L880.346 83.6191H909.013Z" fill="black"/>
<path d="M25.3863 86.8186C22.5532 83.4496 22.9936 78.4269 26.37 75.6C29.7465 72.7732 34.7804 73.2126 37.6136 76.5815L79.7931 126.737C82.6263 130.106 82.1859 135.129 78.8094 137.956C75.433 140.782 70.399 140.343 67.5659 136.974L25.3863 86.8186Z" fill="black"/>
<path d="M61.5658 58.1518C58.7327 54.7829 59.1731 49.7602 62.5495 46.9333C65.926 44.1064 70.9599 44.5459 73.7931 47.9148L115.973 98.0703C118.806 101.439 118.365 106.462 114.989 109.289C111.612 112.116 106.579 111.676 103.745 108.307L61.5658 58.1518Z" fill="black"/>
<path d="M95.6303 60.926C91.2227 60.926 87.6496 57.3608 87.6496 52.963C87.6496 48.5651 91.2227 45 95.6303 45H132.874C137.282 45 140.855 48.5651 140.855 52.963C140.855 57.3608 137.282 60.926 132.874 60.926H95.6303Z" fill="black"/>
<path d="M99.1774 189.749C103.585 189.749 107.158 193.314 107.158 197.712C107.158 202.11 103.585 205.675 99.1774 205.675H61.9338C57.5261 205.675 53.953 202.11 53.953 197.712C53.953 193.314 57.5261 189.749 61.9338 189.749H99.1774Z" fill="black"/>
<path d="M117.622 84.638C113.214 84.638 109.641 81.0728 109.641 76.675C109.641 72.2771 113.214 68.712 117.622 68.712H154.865C159.273 68.712 162.846 72.2771 162.846 76.675C162.846 81.0728 159.273 84.638 154.865 84.638H117.622Z" fill="black"/>
<path d="M78.6047 167.099C83.0124 167.099 86.5855 170.664 86.5855 175.062C86.5855 179.46 83.0124 183.025 78.6047 183.025H41.3611C36.9535 183.025 33.3803 179.46 33.3803 175.062C33.3803 170.664 36.9535 167.099 41.3611 167.099H78.6047Z" fill="black"/>
<path d="M136.776 108.35C132.368 108.35 128.795 104.785 128.795 100.387C128.795 95.9891 132.368 92.424 136.776 92.424H174.019C178.427 92.424 182 95.9891 182 100.387C182 104.785 178.427 108.35 174.019 108.35H136.776Z" fill="black"/>
<path d="M61.2244 143.387C65.632 143.387 69.2051 146.952 69.2051 151.35C69.2051 155.748 65.632 159.313 61.2244 159.313H23.9808C19.5731 159.313 16 155.748 16 151.35C16 146.952 19.5731 143.387 23.9808 143.387H61.2244Z" fill="black"/>
<path d="M81.0744 153C78.2412 149.631 78.6816 144.608 82.0581 141.781C85.4345 138.954 90.4684 139.394 93.3016 142.763L135.481 192.918C138.314 196.287 137.874 201.31 134.497 204.137C131.121 206.964 126.087 206.524 123.254 203.155L81.0744 153Z" fill="black"/>
<path d="M118.569 125.572C115.736 122.203 116.176 117.181 119.553 114.354C122.929 111.527 127.963 111.966 130.796 115.335L172.976 165.491C175.809 168.86 175.369 173.883 171.992 176.709C168.616 179.536 163.582 179.097 160.749 175.728L118.569 125.572Z" fill="black"/>
<path d="M43.8269 73.1034C40.9937 69.7345 41.4341 64.7118 44.8106 61.8849C48.1871 59.058 53.221 59.4974 56.0542 62.8664L98.2337 113.022C101.067 116.391 100.626 121.414 97.25 124.24C93.8735 127.067 88.8396 126.628 86.0064 123.259L43.8269 73.1034Z" fill="black"/>
<path d="M100.307 140.44C97.4739 137.071 97.9143 132.049 101.291 129.222C104.667 126.395 109.701 126.834 112.534 130.203L154.714 180.359C157.547 183.728 157.107 188.751 153.73 191.577C150.354 194.404 145.32 193.965 142.487 190.596L100.307 140.44Z" fill="black"/>
</svg>
